<svg height="512" viewBox="0 0 512 512" width="512" xmlns="http://www.w3.org/2000/svg"><path d="m328 457h-208v-128a48 48 0 0 1 48-48h176a48 48 0 0 1 48 48v64a64 64 0 0 1 -64 64z" fill="#3e8cc7"/><path d="m256 345a56 56 0 0 1 -56-56v-16h112v16a56 56 0 0 1 -56 56z" fill="#f6d3bc"/><path d="m184 425h40a16 16 0 0 1 16 16 16 16 0 0 1 -16 16h-40z" fill="#cdcdcd"/><path d="m256 297a64 64 0 0 1 -64-64v-96h128v96a64 64 0 0 1 -64 64z" fill="#f6d3bc"/><g fill="#ce9c77"><circle cx="224" cy="185" r="8"/><circle cx="288" cy="185" r="8"/><path d="m256 225a7.971 7.971 0 0 1 -5.656-2.344l-8-8a8 8 0 0 1 -1.5-9.234l8-16a8 8 0 0 1 14.312 7.156l-5.422 10.844 3.922 3.922a8 8 0 0 1 -5.656 13.656z"/></g><path d="m440 457h32a16 16 0 0 0 16-16v-64h-64v64a16 16 0 0 0 16 16z" fill="#ebebeb"/><path d="m440 361h-16c0-11.312 5.977-17.293 10.344-21.656 3.922-3.922 5.656-5.844 5.656-10.344s-1.734-6.422-5.656-10.344c-4.367-4.363-10.344-10.343-10.344-21.656h16c0 4.5 1.734 6.422 5.656 10.344 4.367 4.363 10.344 10.344 10.344 21.656s-5.977 17.293-10.344 21.656c-3.922 3.922-5.656 5.844-5.656 10.344z" fill="#bef5fa"/><path d="m480 361h-16c0-11.312 5.977-17.293 10.344-21.656 3.922-3.922 5.656-5.844 5.656-10.344s-1.734-6.422-5.656-10.344c-4.367-4.363-10.344-10.343-10.344-21.656h16c0 4.5 1.734 6.422 5.656 10.344 4.367 4.363 10.344 10.344 10.344 21.656s-5.977 17.293-10.344 21.656c-3.922 3.922-5.656 5.844-5.656 10.344z" fill="#bef5fa"/><path d="m332 209h-20v-40h20a20 20 0 0 1 20 20 20 20 0 0 1 -20 20z" fill="#f6d3bc"/><path d="m180 209h20v-40h-20a20 20 0 0 0 -20 20 20 20 0 0 0 20 20z" fill="#f6d3bc"/><path d="m288 137 32 40v-40l-32-4z" fill="#ec9e15"/><path d="m224 137-32 40v-40l32-3.036z" fill="#ec9e15"/><path d="m87.59 150.469a7.992 7.992 0 0 0 -10.121-5.059l-24 8a8 8 0 0 0 -5.469 7.59v32h-8a24 24 0 1 0 24 24v-50.234l18.531-6.176a8 8 0 0 0 5.059-10.121z" fill="#fbeebd"/><path d="m455.59 158.469a7.992 7.992 0 0 0 -10.121-5.059l-24 8a8 8 0 0 0 -5.469 7.59v32h-8a24 24 0 1 0 24 24v-50.234l18.531-6.176a8 8 0 0 0 5.059-10.121z" fill="#fbeebd"/><path d="m492.816 18.613a8 8 0 0 0 -7.015-1.3l-56 16a8 8 0 0 0 -5.801 7.687v48h-8a24 24 0 1 0 24 24v-33.966l40-11.429v21.395h-8a24 24 0 1 0 24 24v-88a8 8 0 0 0 -3.184-6.387zm-12.816 32.352-40 11.435v-15.365l40-11.435v15.36z" fill="#fbeebd"/><path d="m256 297a64 64 0 0 0 64-64v-24l-24 24a54.626 54.626 0 0 0 -38.627-16h-2.746a54.626 54.626 0 0 0 -38.627 16l-24-24v24a64 64 0 0 0 64 64z" fill="#a55e00"/><path d="m256 260.754a43.825 43.825 0 0 1 -19.578-4.6 8 8 0 0 1 7.156-14.312 27.9 27.9 0 0 0 24.844 0 8 8 0 0 1 7.156 14.312 43.825 43.825 0 0 1 -19.578 4.6z" fill="#844b02"/><path d="m192 337h16v-72h-25.36a22.6 22.6 0 0 0 -21.76 16.56 21.9 21.9 0 0 0 -.88 6.08v26.72a22.463 22.463 0 0 0 5.44 14.64z" fill="#f85542"/><path d="m326.618 265h25.382a0 0 0 0 1 0 0v72a0 0 0 0 1 0 0h-25.382a22.618 22.618 0 0 1 -22.618-22.618v-26.764a22.618 22.618 0 0 1 22.618-22.618z" fill="#f85542" transform="matrix(-1 0 0 -1 656 602)"/><path d="m24 329h168v136h-168z" fill="#cdcdcd"/><path d="m24 441h208v16h-208z" fill="#b9b9b9"/><circle cx="112" cy="393" fill="#eaeae8" r="16"/><path d="m328 361v48h-72a31.825 31.825 0 0 0 -28 16.56 31.464 31.464 0 0 0 -4 15.44v16h136a31.907 31.907 0 0 0 31.6-27.28 30.46 30.46 0 0 0 .4-4.72v-64z" fill="#f6d3bc"/><path d="m424 441h-8a32 32 0 0 1 0-64h8v16h-8a16 16 0 0 0 0 32h8z" fill="#905638"/><rect fill="#a55e00" height="32" rx="8" width="464" x="24" y="457"/><path d="m320 137h-130.446a16 16 0 0 1 -15.782-13.37l-5.772-34.63h120a32 32 0 0 1 32 32z" fill="#fdb62f"/></svg>